<?xml version="1.0" encoding="UTF-8" standalone="no"?>
<!-- Created with Inkscape (http://www.inkscape.org/) -->

<svg
   xmlns:dc="http://purl.org/dc/elements/1.1/"
   xmlns:cc="http://creativecommons.org/ns#"
   xmlns:rdf="http://www.w3.org/1999/02/22-rdf-syntax-ns#"
   xmlns:svg="http://www.w3.org/2000/svg"
   xmlns="http://www.w3.org/2000/svg"
   xmlns:sodipodi="http://sodipodi.sourceforge.net/DTD/sodipodi-0.dtd"
   xmlns:inkscape="http://www.inkscape.org/namespaces/inkscape"
   id="svg2"
   version="1.1"
   inkscape:version="0.48.4 r9939"
   width="86.25"
   height="76.25"
   xml:space="preserve"
   sodipodi:docname="important.eps"><metadata
     id="metadata8"><rdf:RDF><cc:Work
         rdf:about=""><dc:format>image/svg+xml</dc:format><dc:type
           rdf:resource="http://purl.org/dc/dcmitype/StillImage" /><dc:title></dc:title></cc:Work></rdf:RDF></metadata><defs
     id="defs6" /><sodipodi:namedview
     pagecolor="#ffffff"
     bordercolor="#666666"
     borderopacity="1"
     objecttolerance="10"
     gridtolerance="10"
     guidetolerance="10"
     inkscape:pageopacity="0"
     inkscape:pageshadow="2"
     inkscape:window-width="640"
     inkscape:window-height="480"
     id="namedview4"
     showgrid="false"
     inkscape:zoom="3.095082"
     inkscape:cx="37.470869"
     inkscape:cy="38.125"
     inkscape:window-x="65"
     inkscape:window-y="24"
     inkscape:window-maximized="0"
     inkscape:current-layer="g10" /><g
     id="g10"
     inkscape:groupmode="layer"
     inkscape:label="ink_ext_XXXXXX"
     transform="matrix(1.25,0,0,-1.25,0,76.25)"><path
       id="path3001"
       style="fill:#000000"
       d="m 33.093735,18.407027 c -0.613915,0.287943 -1.040099,1.044056 -1.232498,2.186633 -0.07099,0.42157 -0.397134,3.411983 -0.724767,6.645362 -0.327634,3.233378 -0.739839,7.147626 -0.916012,8.698328 -0.519142,4.569576 -0.446573,5.576679 0.494227,6.858769 1.521029,2.072809 4.580902,2.175342 6.345547,0.212632 0.753808,-0.838417 0.974025,-1.547521 0.966498,-3.112162 -0.0057,-1.18767 -0.396815,-6.108017 -0.653657,-8.223456 -0.06443,-0.530668 -0.278587,-2.960201 -0.475905,-5.398962 -0.197319,-2.438762 -0.415714,-4.918493 -0.485323,-5.510516 -0.209514,-1.781903 -0.754404,-2.432878 -2.125476,-2.539275 -0.519202,-0.04029 -0.813366,0.0048 -1.192634,0.182647 z M 32.997295,7.0707568 c -0.263949,0.083476 -0.643577,0.23712 -0.843615,0.3414291 -0.561629,0.2928577 -1.47806,1.3440921 -1.834263,2.104074 -0.278034,0.5932041 -0.321545,0.8402681 -0.321545,1.8258171 0,1.003498 0.03988,1.220985 0.333509,1.818916 0.413791,0.842613 1.079015,1.45489 2.111215,1.943178 0.707941,0.334896 0.91248,0.375815 1.874445,0.374994 0.997693,-8.4e-4 1.136825,-0.03173 1.829899,-0.406178 0.911661,-0.492537 1.624425,-1.240787 2.04822,-2.150196 0.269951,-0.579284 0.316981,-0.842016 0.315161,-1.760679 -0.0018,-0.923948 -0.0485,-1.1750302 -0.323376,-1.7396657 C 37.83428,8.698016 37.193204,7.9779456 36.525026,7.5557455 35.571297,6.9531134 34.036474,6.7421087 32.997295,7.0707568 z m 8.130997,-1.775174 20.848551,0.077233 -0.64389,1.2149705 c -0.354139,0.6682343 -1.778288,3.1046084 -3.164775,5.4141637 -1.386486,2.309558 -2.860213,4.79308 -3.274948,5.518941 -0.414735,0.72586 -1.656485,2.831455 -2.759445,4.6791 -5.012387,8.396601 -15.344547,26.011597 -17.100651,29.154396 -0.516204,0.923823 -0.9562,1.702386 -0.977767,1.730141 -0.113563,0.146141 -0.680205,-0.623183 -1.299005,-1.763649 C 32.37252,50.613447 30.779465,47.794071 29.21624,45.055597 25.724312,38.938398 20.223313,29.163892 14.46271,18.840636 12.069255,14.55146 9.4209995,9.8273685 8.5776965,8.3426539 7.7343935,6.8579393 7.0130725,5.5351935 6.9747615,5.4032189 6.9056285,5.1650707 6.9554145,5.1634726 13.592423,5.1908069 c 3.678024,0.015148 16.069165,0.062297 27.535869,0.1047759 z M 1.9024435,0.42455261 c -0.730056,0.1515681 -1.21796398,0.4393916 -1.48374098,0.87528099 -0.324639,0.5324253 -0.293496,1.1004321 0.106576,1.9438004 0.411316,0.8670697 4.41058698,8.036172 13.75389548,24.655261 3.839675,6.829687 7.565378,13.470411 8.279343,14.757163 0.713963,1.286753 2.038081,3.635301 2.942484,5.218997 0.904403,1.583696 2.440446,4.337166 3.413428,6.118824 3.35647,6.146138 3.588062,6.471071 4.720407,6.62295 0.837329,0.112309 1.235377,-0.172975 2.154096,-1.54386 1.458991,-2.177059 4.58017,-7.424093 9.087546,-15.27713 3.118957,-5.434046 4.908009,-8.484716 9.920747,-16.916748 4.154417,-6.988233 5.438459,-9.175221 9.544872,-16.256875 C 65.164769,9.2034884 66.324468,7.2659496 66.919206,6.3165757 68.447778,3.8765303 68.951527,2.6824563 68.765329,1.9405801 68.652333,1.4903654 67.972186,0.91386061 67.328522,0.72271211 66.82063,0.57188431 62.767626,0.53900941 38.289995,0.48717461 22.64346,0.45404061 8.1680705,0.40300461 6.1224635,0.37376161 c -2.045606,-0.029242 -3.944616,-0.00638 -4.22002,0.050791 z" /></g></svg>